tugOfWar_states
version=1
nRows=27
nColumns=19
inDegrees=yes

# SIMM Motion File Header:
name tugOfWar_states
datacolumns 19
datarows 27
otherdata 1
range 1.22933276 1.26859974
endheader
time	blockToGround_xRotation	blockToGround_yRotation	blockToGround_zRotation	blockToGround_xTranslation	blockToGround_yTranslation	blockToGround_zTranslation	blockToGround_xRotation_u	blockToGround_yRotation_u	blockToGround_zRotation_u	blockToGround_xTranslation_u	blockToGround_yTranslation_u	blockToGround_zTranslation_u	Liu.activation	Liu.active_motor_units	Liu.fatigued_motor_units	Liu.fiber_length	Thelen.activation	Thelen.fiber_length
      1.22933276	      0.00000000	      0.00000000	      0.00000000	      0.00000019	     -0.00017428	      0.00206631	      0.00000000	      0.00000000	      0.00000000	      0.00001486	      0.04101409	     -0.00417090	      0.24590646	      0.08655494	      0.24590646	      0.10000000	      0.24590646	      0.09493295
      1.23043848	      0.00000000	      0.00000000	      0.00000000	      0.00000021	     -0.00013005	      0.00206241	      0.00000000	      0.00000000	      0.00000000	      0.00001746	      0.03858290	     -0.00283279	      0.24642721	      0.08659857	      0.24642721	      0.10000000	      0.24642721	      0.09493875
      1.23154420	      0.00000000	      0.00000000	      0.00000000	      0.00000023	     -0.00008982	      0.00206016	      0.00000000	      0.00000000	      0.00000000	      0.00002003	      0.03380191	     -0.00119582	      0.24642696	      0.08664113	      0.24642696	      0.10000000	      0.24642696	      0.09494401
      1.23313982	      0.00000000	      0.00000000	      0.00000000	      0.00000027	     -0.00004371	      0.00206038	      0.00000000	      0.00000000	      0.00000000	      0.00002274	      0.02337848	      0.00150708	      0.24686781	      0.08670176	      0.24686781	      0.10000000	      0.24686781	      0.09495040
      1.23473545	      0.00000000	      0.00000000	      0.00000000	      0.00000030	     -0.00001679	      0.00206492	      0.00000000	     -0.00000000	      0.00000000	      0.00002384	      0.01000627	      0.00414120	      0.24707883	      0.08676311	      0.24707883	      0.10000000	      0.24707883	      0.09495499
      1.23639251	      0.00000000	      0.00000000	      0.00000000	      0.00000034	     -0.00001276	      0.00207378	      0.00000000	     -0.00000000	      0.00000000	      0.00002414	     -0.00519176	      0.00648017	      0.24745422	      0.08682951	      0.24745422	      0.10000000	      0.24745422	      0.09495730
      1.23804957	      0.00000000	      0.00000000	      0.00000000	      0.00000038	     -0.00003361	      0.00208616	      0.00000000	     -0.00000000	      0.00000000	      0.00002437	     -0.01968362	      0.00838279	      0.24788419	      0.08690050	      0.24788419	      0.10000000	      0.24788419	      0.09495687
      1.23970663	      0.00000000	      0.00000000	      0.00000000	      0.00000042	     -0.00007650	      0.00210129	      0.00000000	     -0.00000000	      0.00000000	      0.00002453	     -0.03149820	      0.00977873	      0.24804228	      0.08697781	      0.24804228	      0.10000000	      0.24804228	      0.09495175
      1.24130279	      0.00000000	      0.00000000	      0.00000000	      0.00000046	     -0.00013324	      0.00211757	      0.00000000	     -0.00000000	      0.00000000	      0.00002436	     -0.03884111	      0.01051341	      0.24866634	      0.08705973	      0.24866634	      0.10000000	      0.24866634	      0.09494282
      1.24289895	      0.00000000	      0.00000000	      0.00000000	      0.00000050	     -0.00019787	      0.00213453	      0.00000000	     -0.00000000	      0.00000000	      0.00002383	     -0.04127731	      0.01064329	      0.24866595	      0.08715008	      0.24866595	      0.10000000	      0.24866595	      0.09493122
      1.24425513	      0.00000000	     -0.00000000	      0.00000000	      0.00000053	     -0.00025290	      0.00214882	      0.00000000	     -0.00000000	      0.00000000	      0.00002332	     -0.03924357	      0.01038708	      0.24911302	      0.08723404	      0.24911302	      0.10000000	      0.24911302	      0.09491978
      1.24561130	      0.00000000	     -0.00000000	      0.00000000	      0.00000056	     -0.00030269	      0.00216263	      0.00000000	     -0.00000000	      0.00000000	      0.00002306	     -0.03362111	      0.00996688	      0.24913412	      0.08732486	      0.24913412	      0.10000000	      0.24913412	      0.09490747
      1.24659215	      0.00000000	     -0.00000000	      0.00000000	      0.00000059	     -0.00033283	      0.00217224	      0.00000000	     -0.00000000	      0.00000000	      0.00002319	     -0.02759800	      0.00963889	      0.24969778	      0.08739489	      0.24969778	      0.10000000	      0.24969778	      0.09489806
      1.24757300	      0.00000000	     -0.00000000	      0.00000000	      0.00000061	     -0.00035639	      0.00218154	      0.00000000	     -0.00000000	      0.00000000	      0.00002367	     -0.02025077	      0.00932806	      0.24969750	      0.08746860	      0.24969750	      0.10000000	      0.24969750	      0.09488844
      1.24977602	      0.00000000	     -0.00000000	      0.00000000	      0.00000067	     -0.00038008	      0.00220139	      0.00000000	     -0.00000000	      0.00000000	      0.00002620	     -0.00081843	      0.00869955	      0.25024740	      0.08764759	      0.25024740	      0.10000000	      0.25024740	      0.09486666
      1.25197905	      0.00000000	     -0.00000000	      0.00000000	      0.00000073	     -0.00035986	      0.00221990	      0.00000000	     -0.00000000	      0.00000000	      0.00003112	      0.01880166	      0.00809199	      0.25079268	      0.08784521	      0.25079268	      0.10000000	      0.25079268	      0.09484565
      1.25418207	      0.00000000	     -0.00000000	      0.00000000	      0.00000080	     -0.00030056	      0.00223692	      0.00000000	      0.00000000	      0.00000000	      0.00003898	      0.03393780	      0.00731862	      0.25095428	      0.08806137	      0.25095428	      0.10000000	      0.25095428	      0.09482499
      1.25573440	      0.00000000	     -0.00000000	      0.00000000	      0.00000087	     -0.00024268	      0.00224772	      0.00000000	      0.00000000	      0.00000000	      0.00004667	      0.03989014	      0.00655494	      0.25134103	      0.08822435	      0.25134103	      0.10000000	      0.25134103	      0.09481102
      1.25728673	      0.00000000	     -0.00000000	      0.00000000	      0.00000095	     -0.00017920	      0.00225713	      0.00000000	      0.00000000	      0.00000000	      0.00005618	      0.04107666	      0.00550485	      0.25164203	      0.08839529	      0.25164203	      0.10000000	      0.25164203	      0.09479800
      1.25928433	      0.00000000	     -0.00000000	      0.00000000	      0.00000108	     -0.00010149	      0.00226630	      0.00000000	      0.00000000	      0.00000000	      0.00006994	      0.03543242	      0.00355974	      0.25184375	      0.08862469	      0.25184375	      0.10000000	      0.25184375	      0.09478260
      1.26017752	      0.00000000	     -0.00000000	      0.00000000	      0.00000114	     -0.00007193	      0.00226900	      0.00000000	      0.00000000	      0.00000000	      0.00007565	      0.03053558	      0.00245285	      0.25232417	      0.08872953	      0.25232417	      0.10000000	      0.25232417	      0.09477639
      1.26107071	      0.00000000	     -0.00000000	      0.00000000	      0.00000121	     -0.00004730	      0.00227065	      0.00000000	      0.00000000	      0.00000000	      0.00008033	      0.02442291	      0.00123212	      0.25232399	      0.08883497	      0.25232399	      0.10000000	      0.25232399	      0.09477076
      1.26260241	      0.00000000	      0.00000000	      0.00000000	      0.00000134	     -0.00001926	      0.00227086	      0.00000000	      0.00000000	      0.00000000	      0.00008510	      0.01183207	     -0.00096274	      0.25276633	      0.08901516	      0.25276633	      0.10000000	      0.25276633	      0.09476273
      1.26413412	      0.00000000	      0.00000000	      0.00000000	      0.00000147	     -0.00001176	      0.00226777	      0.00000000	      0.00000000	      0.00000000	      0.00008697	     -0.00213549	     -0.00303554	      0.25292097	      0.08919158	      0.25292097	      0.10000000	      0.25292097	      0.09475726
      1.26567396	      0.00000000	      0.00000000	      0.00000000	      0.00000161	     -0.00002580	      0.00226163	      0.00000000	      0.00000000	      0.00000000	      0.00008877	     -0.01592357	     -0.00490498	      0.25353506	      0.08936211	      0.25353506	      0.10000000	      0.25353506	      0.09475405
      1.26721379	      0.00000000	      0.00000000	      0.00000000	      0.00000174	     -0.00005983	      0.00225277	      0.00000000	      0.00000000	      0.00000000	      0.00009202	     -0.02783817	     -0.00656345	      0.25353468	      0.08952342	      0.25353468	      0.10000000	      0.25353468	      0.09475356
      1.26859974	      0.00000000	      0.00000000	      0.00000000	      0.00000187	     -0.00010428	      0.00224277	      0.00000000	      0.00000000	      0.00000000	      0.00009583	     -0.03579374	     -0.00782989	      0.25396577	      0.08965936	      0.25396577	      0.10000000	      0.25396577	      0.09475467
